<svg id="logo_curry_house-stroke_Image" data-name="logo curry house-stroke Image" xmlns="http://www.w3.org/2000/svg" viewBox="0 0 376.97 327.14"><path d="M153.12,338.56c-2.89,0-5.74-.07-8.71-.21l-.28,0C116.27,336.21,91.53,327,70.6,311.1c-19.13-14.57-34.39-34.63-44.12-58C3.11,197,13.65,130.62,53.32,84l.29-.34.33-.31C84.45,53.5,111.64,35.49,142.1,25c28.1-9.69,57.36-12.37,95.46-13.55h.33c16.44,0,50.66.08,61.74,27.3l.62,1.52.1,1.64c.17,2.68.5,5.45.86,8.37,1.37,11.33,3.08,25.39-6.62,38a77.67,77.67,0,0,0-3.87,7.93,15.06,15.06,0,0,1-2.1,11.36c-4.53,7-14.51,10.43-30.52,10.43-7.08,0-20.5-.89-27.49-4.18A128,128,0,0,0,187.77,106c-53.26,0-88.62,37.32-98.94,72C78,214.54,91.3,249.3,124.51,271A70.69,70.69,0,0,0,163.3,282.4c28.48,0,55.91-16.49,66.7-40.12,8.87-19.41,4.71-40.55-11.72-59.52-6.06-6.88-16.86-10.86-29.57-10.86-19.58,0-40.54,10-41.71,26.85l0,.27,0,.28c-2.13,16.9,3,25,17.58,27.56,3.93-.82,8.38-4.88,11.11-7.38,3.06-2.79,6-5.43,10.48-5.43a10.12,10.12,0,0,1,2.57.33,11,11,0,0,1,7.51,6.75c2.76,7-.66,18.25-5.47,25.8l-.48.75-.61.66a40.47,40.47,0,0,1-30.18,12.94c-21.5,0-42.56-14.95-49-34.78l0-.16c-6.37-20.78-2.63-43.56,10.26-62.5a77.27,77.27,0,0,1,58-33.86l.39,0h.38c30.87,0,56.7,10,74.77,29,16.2,17,25.12,40.31,25.13,65.59a111.94,111.94,0,0,1-32.06,77.82c-16.24,16.51-45.76,36.18-94.16,36.19Z" transform="translate(-14.19 -11.42)"/><path d="M340.57,159.36c-14.88,0-28.48-6.11-36.38-16.33-6.42-8.33-8.48-18.82-5.84-29.63a31,31,0,0,1,7.29-16.19,41.59,41.59,0,0,1-10.45,2.91l-24,3.91,14.26-19.65c7.83-10.78,9.64-22.53,5.69-37L288.61,38,304,33.38l3.89,2.49c.22.14.48.26.73.39a16.63,16.63,0,0,1,6.67,5.43c3.38,5,8.9,6.66,17.62,8.93l1.14.29c29.42,4.68,54.93,31,57,59,1.65,22.31-12,40.1-36.55,47.57l-.2.06a50.39,50.39,0,0,1-13.7,1.87Zm-16-39.28c1.55,10.25,10.43,11.36,14.19,11.36a22.54,22.54,0,0,0,11.94-3.55,34.39,34.39,0,0,0,3.36-3l-16.16-.54-1.62-7.65c-1-4.65-3-4.65-3.95-4.65a8.69,8.69,0,0,0-6,2.91A6.48,6.48,0,0,0,324.57,120.08Zm32.12-17.39a31.22,31.22,0,0,1,1.32,13l-.45,5a14.61,14.61,0,0,0,1.63-12.95A21,21,0,0,0,356.69,102.69Z" transform="translate(-14.19 -11.42)"/><path d="M144.89,328.36C27.58,319.42-11.89,176,60.93,90.53c60.93-59.67,105.24-66.89,176.94-69.11,18.37,0,44.28.88,52.5,21.07.85,13.83,5.59,27.95-4,40-2.14,3.28-6.53,12.93-6.13,13.74,7.1,15.69-38.15,12.5-45.75,8.35C105.26,58.09,18.39,213.63,119,279.36c69.27,44.53,166.92-33.72,106.8-103.15-23.16-26.31-86.26-14.8-88.82,21.84-2.36,18.78,2.91,35.26,27.33,38.92,11.22-.85,20-13.37,21.87-12.9s1.21,9.42-3.94,17.49c-18.62,20.2-54.36,6.39-62.31-18.15-11.52-37.57,16.74-80.1,59.5-83.46C311,139.87,297.07,335.69,144.89,328.36Z" transform="translate(-14.19 -11.42)" style="fill:#ff4848"/><path d="M346.06,114.66c-4.73-22.23-33.47-11.79-31.42,6.66,2.91,20.46,25.94,25.21,41.86,14.73C396.62,105.12,338,59.2,304.3,86.57c-2.93,2-6.5,3-10.71,3.68,10.24-14.11,11.67-29.26,7.24-45.46l1.64-.5c1.53,1,3.58,1.61,4.51,3,6,8.92,15.65,11,25,13.43,45.27,6.76,73.77,70.63,19.56,87.15-22.09,6.24-49.93-7.55-43.37-32.59,2.89-24.28,42.41-28.19,39.86-.56Z" transform="translate(-14.19 -11.42)" style="fill:#13b900"/></svg>