<?xml version="1.0" standalone="no"?>
<!DOCTYPE svg PUBLIC "-//W3C//DTD SVG 20010904//EN"
 "http://www.w3.org/TR/2001/REC-SVG-20010904/DTD/svg10.dtd">
<svg version="1.0" xmlns="http://www.w3.org/2000/svg"
 width="1184.000000pt" height="1184.000000pt" viewBox="0 0 1184.000000 1184.000000"
 preserveAspectRatio="xMidYMid meet">
<metadata>
Created by potrace 1.11, written by Peter Selinger 2001-2013
</metadata>
<g transform="translate(0.000000,1184.000000) scale(0.100000,-0.100000)"
fill="#000000" stroke="none">
<path d="M5498 8615 c-1 -2 -64 -6 -138 -9 -186 -9 -248 -13 -343 -21 -131
-11 -149 -13 -207 -19 -30 -4 -74 -8 -97 -10 -51 -5 -135 -15 -188 -22 -22 -3
-56 -7 -75 -9 -35 -4 -102 -13 -149 -20 -13 -3 -45 -7 -70 -11 -55 -7 -79 -11
-151 -23 -30 -6 -73 -13 -95 -16 -23 -3 -52 -7 -65 -10 -14 -3 -41 -8 -60 -11
-19 -4 -44 -9 -55 -11 -25 -5 -51 -10 -90 -18 -16 -3 -41 -8 -55 -11 -14 -3
-34 -7 -45 -9 -11 -2 -42 -9 -70 -15 -27 -6 -61 -14 -75 -16 -14 -3 -61 -14
-105 -25 -44 -10 -89 -21 -100 -23 -40 -9 -182 -47 -248 -67 -37 -12 -73 -22
-80 -23 -7 -2 -32 -9 -57 -16 -25 -8 -47 -14 -50 -15 -31 -8 -114 -35 -195
-62 -55 -19 -131 -44 -170 -57 -38 -13 -91 -33 -118 -45 -26 -11 -48 -20 -50
-20 -7 1 -234 -91 -312 -126 -97 -44 -456 -223 -505 -251 -223 -129 -517 -327
-606 -408 -7 -6 -29 -24 -49 -41 -201 -163 -458 -451 -554 -621 -9 -16 -18
-31 -21 -34 -8 -8 -29 -44 -39 -65 -5 -11 -27 -58 -50 -104 -22 -46 -41 -91
-41 -101 0 -9 -5 -21 -10 -26 -13 -13 -50 -135 -66 -219 -29 -149 -33 -202
-29 -365 2 -96 6 -186 9 -200 4 -14 8 -41 11 -60 41 -301 213 -589 440 -740
33 -22 65 -43 70 -48 10 -8 37 -21 135 -65 168 -76 433 -126 685 -129 97 -1
360 15 431 26 90 14 221 36 244 41 91 18 162 33 190 40 11 3 29 7 40 10 32 8
64 16 80 20 8 2 15 4 15 5 0 1 7 3 17 5 70 13 395 122 493 164 11 5 65 28 120
51 157 67 422 210 512 276 17 13 36 24 42 24 6 0 11 5 11 10 0 6 6 10 14 10 8
0 16 3 18 8 1 4 28 25 58 47 248 178 518 435 732 699 10 11 22 26 28 33 16 19
164 215 183 243 172 246 251 383 290 500 32 95 38 125 42 233 7 165 -50 278
-140 275 -45 -2 -124 -76 -165 -155 -14 -27 -30 -55 -36 -63 -6 -8 -35 -78
-64 -155 -84 -224 -155 -375 -259 -550 -53 -90 -171 -265 -208 -310 -5 -5 -37
-46 -73 -90 -78 -96 -255 -276 -362 -368 -126 -108 -402 -307 -426 -307 -6 0
-12 -4 -14 -8 -6 -17 -407 -230 -443 -236 -5 -1 -19 -7 -31 -13 -52 -29 -389
-154 -454 -168 -8 -2 -55 -16 -105 -30 -49 -15 -101 -29 -115 -32 -14 -2 -43
-9 -65 -14 -22 -5 -49 -11 -60 -13 -11 -2 -33 -6 -50 -9 -16 -4 -46 -9 -65
-12 -19 -3 -46 -7 -60 -10 -100 -19 -243 -29 -405 -29 -208 0 -315 11 -454 50
-47 13 -93 26 -102 28 -41 10 -181 84 -247 129 -111 76 -234 218 -284 327 -61
131 -101 269 -115 391 -9 80 -9 341 0 394 3 22 9 58 12 79 7 54 83 280 113
335 13 25 36 69 50 96 25 46 128 203 141 215 4 3 19 23 36 45 85 115 271 296
445 433 152 121 542 372 576 372 7 0 14 4 16 8 5 12 334 172 493 240 148 63
437 172 455 172 6 0 18 4 28 9 31 18 439 143 538 166 10 2 73 18 139 36 125
32 141 36 190 44 17 3 44 10 60 14 17 5 48 13 70 17 22 4 45 8 50 10 21 6 281
56 307 59 15 2 35 6 45 9 10 3 38 8 63 11 25 2 56 7 70 10 14 3 41 7 60 10 19
3 44 6 55 9 18 3 41 6 150 22 61 8 111 15 150 19 22 3 60 7 85 10 68 8 159 17
305 30 200 18 293 25 408 30 56 3 152 8 212 11 403 21 1176 1 1590 -41 28 -3
79 -7 115 -10 36 -3 79 -8 95 -10 17 -2 53 -7 80 -10 28 -3 70 -8 95 -11 25
-3 59 -8 75 -10 36 -4 122 -16 150 -19 11 -2 49 -8 85 -14 36 -5 81 -12 100
-15 19 -3 46 -8 60 -10 14 -3 63 -12 110 -20 130 -23 138 -25 240 -46 52 -10
106 -21 120 -24 14 -3 66 -14 115 -26 111 -26 111 -26 160 -38 22 -6 51 -13
65 -16 55 -11 292 -78 445 -126 55 -17 107 -33 115 -35 25 -7 224 -75 245 -84
11 -5 36 -14 55 -21 19 -7 49 -18 65 -25 17 -7 77 -32 135 -55 182 -72 483
-217 658 -316 105 -60 353 -217 385 -244 6 -6 39 -31 72 -56 219 -167 384
-327 538 -524 67 -85 162 -254 227 -405 84 -194 113 -464 75 -700 -3 -22 -9
-49 -12 -60 -4 -11 -7 -27 -8 -35 -1 -8 -9 -40 -19 -70 -22 -67 -23 -72 -25
-85 -1 -5 -9 -20 -17 -32 -8 -13 -12 -23 -10 -23 7 0 -88 -179 -130 -246 -34
-54 -75 -111 -122 -171 -56 -73 -221 -243 -308 -318 -38 -33 -71 -62 -74 -65
-4 -5 -74 -59 -105 -82 -5 -4 -23 -18 -40 -31 -40 -32 -273 -187 -280 -187 -3
0 -11 -5 -18 -10 -62 -53 -518 -284 -677 -343 -52 -19 -104 -38 -115 -43 -25
-9 -23 -8 -125 -39 -47 -15 -95 -29 -107 -31 -12 -2 -34 -9 -48 -14 -14 -5
-25 -7 -25 -4 0 2 -8 0 -17 -5 -10 -5 -31 -11 -48 -14 -16 -3 -41 -8 -55 -11
-13 -3 -42 -8 -64 -12 -22 -3 -43 -7 -46 -9 -4 -2 -28 -6 -56 -10 -27 -3 -56
-7 -64 -10 -52 -14 -326 -21 -425 -11 -62 7 -149 23 -175 33 -8 3 -23 8 -33
10 -52 10 -156 72 -208 124 -51 51 -105 140 -114 190 -2 11 -6 23 -9 27 -18
29 -26 219 -14 322 11 93 14 106 43 230 23 96 92 301 126 377 10 23 19 44 19
48 0 8 86 196 163 355 88 184 125 291 134 396 15 172 -89 216 -293 124 -90
-41 -292 -183 -412 -291 -18 -16 -34 -29 -36 -29 -4 0 -42 -31 -75 -60 -9 -8
-37 -31 -61 -50 -25 -19 -47 -37 -50 -40 -3 -3 -30 -24 -60 -48 -30 -23 -60
-46 -65 -50 -6 -5 -31 -20 -56 -35 -49 -29 -85 -35 -92 -14 -6 20 20 109 59
193 44 97 67 147 69 154 4 12 27 67 40 95 45 100 65 146 65 151 0 3 7 20 15
37 8 18 44 109 81 202 36 94 76 197 89 230 13 33 42 108 64 166 22 59 73 183
114 275 104 237 130 325 131 444 1 76 -3 101 -17 123 -58 89 -225 -43 -469
-370 -40 -54 -76 -99 -80 -101 -5 -2 -8 -8 -8 -14 0 -5 -6 -15 -12 -22 -7 -7
-44 -59 -83 -115 -82 -118 -182 -262 -193 -276 -38 -50 -82 -117 -82 -125 0
-6 -4 -10 -8 -10 -4 0 -16 -15 -27 -32 -10 -18 -23 -37 -27 -43 -10 -11 -95
-130 -115 -161 -7 -11 -47 -66 -88 -124 -42 -58 -83 -116 -93 -130 -14 -21
-74 -103 -125 -171 -7 -8 -23 -31 -37 -50 -13 -19 -28 -38 -32 -44 -4 -5 -60
-77 -124 -160 -122 -159 -131 -169 -319 -389 -169 -200 -457 -487 -610 -609
-11 -9 -38 -31 -61 -49 -22 -18 -74 -56 -115 -83 -41 -28 -76 -53 -79 -56 -17
-20 -300 -168 -327 -170 -5 -1 -16 -5 -26 -11 -29 -15 -168 -55 -223 -64 -68
-11 -156 -8 -201 6 -115 38 -144 118 -96 262 26 78 24 209 -5 265 -64 124
-201 164 -337 98 -65 -32 -158 -120 -190 -178 -11 -20 -23 -37 -27 -37 -5 0
-8 -5 -8 -11 0 -5 -11 -34 -24 -63 -64 -139 -89 -306 -63 -406 38 -140 143
-248 307 -314 43 -18 63 -24 148 -46 57 -14 139 -24 219 -24 40 -1 73 -5 73
-9 0 -5 4 -6 8 -3 5 3 42 8 83 11 41 3 85 7 99 10 14 3 39 7 55 10 107 16 276
74 412 141 143 70 348 207 488 325 148 125 404 384 500 507 11 14 36 44 55 67
19 23 49 59 65 79 17 21 37 46 45 56 8 10 24 31 35 46 11 15 31 42 45 59 14
18 32 43 40 55 8 12 20 28 25 34 6 6 19 24 30 40 11 16 29 41 40 56 58 80 270
396 343 510 22 36 46 70 51 77 6 7 11 14 11 16 0 3 59 98 130 211 72 114 130
211 130 216 0 4 3 10 8 12 4 2 49 71 101 153 51 83 98 152 102 153 5 2 9 8 9
13 0 11 189 290 269 399 31 41 59 79 63 84 4 6 10 7 14 4 7 -7 -64 -169 -79
-179 -5 -3 -8 -9 -8 -13 1 -7 -25 -60 -99 -201 -99 -189 -284 -544 -367 -705
-182 -352 -227 -436 -235 -447 -6 -7 -8 -13 -5 -13 3 0 -9 -26 -26 -57 -32
-57 -80 -153 -82 -163 0 -3 -5 -12 -10 -20 -14 -22 -69 -174 -81 -225 -47
-196 3 -308 128 -290 78 12 228 104 344 210 21 20 67 61 102 92 35 31 76 68
91 82 16 14 66 60 112 101 45 41 93 85 106 97 13 11 42 36 65 55 23 18 56 47
74 63 18 17 46 40 61 52 15 12 39 31 53 43 14 12 34 29 45 38 11 9 63 53 114
97 159 135 208 164 226 135 10 -16 -21 -119 -61 -205 -20 -44 -38 -84 -39 -90
-2 -5 -21 -47 -43 -92 -22 -46 -38 -83 -36 -83 2 0 -2 -10 -10 -23 -8 -12 -37
-78 -66 -147 -28 -69 -55 -134 -60 -145 -14 -29 -110 -296 -114 -314 -1 -9
-12 -48 -24 -87 -50 -164 -75 -321 -75 -469 1 -323 175 -512 523 -570 82 -13
398 -14 460 -2 14 3 75 13 135 22 92 14 157 28 338 70 140 33 442 132 608 200
104 43 319 144 329 154 3 3 43 26 90 50 212 110 541 327 696 458 158 135 303
275 384 372 25 29 50 58 55 65 29 31 139 190 179 259 101 171 194 413 212 547
1 14 6 48 11 75 10 66 10 325 -1 395 -4 30 -10 66 -12 80 -1 14 -10 50 -18 80
-8 30 -18 66 -22 80 -15 59 -79 212 -125 299 -43 82 -152 257 -169 271 -3 3
-17 21 -30 40 -13 19 -27 37 -30 40 -3 3 -40 43 -81 90 -73 82 -178 187 -247
246 -18 16 -48 42 -65 57 -18 16 -66 54 -107 85 -41 31 -81 62 -88 69 -26 24
-300 201 -422 273 -135 78 -469 244 -615 305 -49 21 -103 43 -120 51 -205 90
-799 285 -1005 329 -8 2 -42 11 -75 20 -61 16 -220 53 -265 61 -14 3 -41 9
-60 14 -19 5 -51 12 -70 15 -19 3 -64 12 -100 20 -36 8 -78 17 -95 19 -16 2
-30 5 -30 6 0 1 -11 3 -25 5 -14 2 -68 11 -120 20 -52 9 -106 18 -120 20 -84
12 -118 17 -140 20 -14 2 -43 6 -65 9 -22 3 -62 9 -90 12 -27 3 -61 7 -75 9
-27 4 -112 14 -175 20 -60 6 -237 23 -322 30 -61 5 -166 12 -323 22 -104 6
-1016 13 -1022 8z"/>
<path d="M4538 7644 c-2 -1 -42 -5 -90 -9 -49 -3 -96 -8 -105 -9 -10 -2 -40
-7 -66 -10 -27 -4 -59 -9 -70 -12 -12 -2 -42 -7 -67 -10 -25 -3 -52 -8 -60
-10 -8 -2 -44 -10 -80 -18 -282 -62 -560 -168 -785 -296 -22 -13 -49 -28 -60
-34 -113 -63 -265 -185 -415 -333 -160 -159 -195 -212 -135 -207 24 2 143 59
202 97 24 15 44 27 47 27 2 0 51 29 109 65 88 54 259 147 277 151 3 0 19 6 35
13 93 40 256 97 300 107 11 2 31 8 45 14 22 8 177 45 235 55 150 27 201 35
250 40 28 4 66 8 85 10 214 27 709 22 858 -9 15 -3 45 -8 67 -12 112 -15 363
-76 390 -94 6 -4 31 -13 58 -20 26 -7 50 -17 53 -21 3 -5 14 -9 25 -9 10 0 19
-5 19 -12 0 -6 3 -8 6 -5 9 9 154 -69 250 -134 87 -58 221 -186 276 -264 67
-93 135 -241 152 -330 4 -16 9 -43 12 -60 15 -77 5 -234 -21 -310 -11 -34 -17
-55 -18 -62 0 -4 -19 -44 -41 -88 -60 -116 -139 -219 -235 -309 -25 -23 -54
-50 -66 -61 -45 -43 -196 -144 -297 -198 -177 -96 -504 -210 -668 -233 -14 -2
-61 -15 -105 -29 -138 -44 -175 -73 -117 -92 42 -15 199 -4 287 19 22 5 50 12
63 14 53 10 264 79 371 121 252 99 495 240 670 389 86 73 225 220 257 270 10
16 23 34 29 39 23 21 100 163 133 245 58 145 85 359 61 487 -5 26 -11 57 -13
68 -2 11 -15 54 -29 95 -99 295 -354 553 -721 730 -244 117 -523 195 -807 225
-24 3 -64 8 -89 11 -43 6 -457 14 -462 8z"/>
</g>
</svg>
